<svg id="Слой_1" data-name="Слой 1" xmlns="http://www.w3.org/2000/svg" xmlns:xlink="http://www.w3.org/1999/xlink" viewBox="0 0 24.62 20.12"><defs><style>.cls-1{fill:none;}.cls-2{clip-path:url(#clip-path);}.cls-3{fill:#434343;}</style><clipPath id="clip-path" transform="translate(-0.3 -4.97)"><rect class="cls-1" width="26" height="26"/></clipPath></defs><title>icon1</title><g class="cls-2"><path class="cls-3" d="M20.51,5.36C19.38,7.89,17.57,11.84,17,13a4,4,0,0,0-1.61-.56,4.1,4.1,0,0,0-1.71.12l-.23.06V10.45L12.87,10l-9,2.6-.31.41v2.32l-2.82.79-.48.63v5.53L1,23H2.18a2.6,2.6,0,0,0,.9,1.52,2.6,2.6,0,0,0,3.32,0A2.6,2.6,0,0,0,7.3,23h4.6a2.64,2.64,0,0,0,.89,1.52A2.6,2.6,0,0,0,17,23h1.38l.65-.65V16.65A4.13,4.13,0,0,0,18,13.87c.46-.75,1.34-2.6,3.56-7.56h3.4V5H21.11Zm-16.06,8L12.55,11v1.83l-8.1,2.27Zm.29,10.72a1.77,1.77,0,0,1-1-.3A1.76,1.76,0,0,1,3,22a1.87,1.87,0,0,1,.48-.91,1.75,1.75,0,0,1,1.94-.38,1.76,1.76,0,0,1,.8.65,1.83,1.83,0,0,1,.3,1,1.78,1.78,0,0,1-1.78,1.77Zm9.72,0a1.72,1.72,0,0,1-1-.3,1.77,1.77,0,0,1-.27-2.73,1.77,1.77,0,0,1,.91-.49,1.83,1.83,0,0,1,1,.11,1.77,1.77,0,0,1,1.09,1.64,1.78,1.78,0,0,1-1.77,1.77Zm3.28-2.42H17a2.59,2.59,0,0,0-2.55-2.13,2.59,2.59,0,0,0-2.56,2.13H7.3a2.6,2.6,0,0,0-.9-1.53,2.6,2.6,0,0,0-3.32,0,2.6,2.6,0,0,0-.9,1.53H1.6V17.28L14,13.81a3,3,0,0,1,3.43,1.54,2.94,2.94,0,0,1,.31,1.31Z" transform="translate(-0.3 -4.97)"/><path class="cls-3" d="M13.37,15.72,7.23,17.55l.25.83,6.14-1.83Z" transform="translate(-0.3 -4.97)"/></g></svg>