<svg id="Слой_1" data-name="Слой 1" xmlns="http://www.w3.org/2000/svg" viewBox="0 0 26 26"><defs><style>.cls-1{fill:#454545;}</style></defs><title>icons-kids</title><path class="cls-1" d="M16,22a.59.59,0,0,0,.61-.57.61.61,0,0,0-1.22,0A.59.59,0,0,0,16,22Z"/><ellipse class="cls-1" cx="8.29" cy="21.38" rx="0.61" ry="0.57"/><path class="cls-1" d="M21,7.39a2,2,0,0,0-.65,1.53v.39h-8.3V2.11l-.75-.75H10.24A7.56,7.56,0,0,0,2.49,8.7v1.35c0,.13,0,.26,0,.4a6.15,6.15,0,0,0,5.9,6.35h.4l2.14,1.26-.85.5a3.54,3.54,0,0,0-1.69-.44,3.26,3.26,0,1,0,0,6.52,3.35,3.35,0,0,0,3.42-3.26,3.16,3.16,0,0,0-.88-2.16l1-.58,1.41.83a3.16,3.16,0,0,0-.66,1.91,3.42,3.42,0,1,0,3.42-3.26,3.44,3.44,0,0,0-2,.64l-1.18-.7L15,16.8h1a6.12,6.12,0,0,0,5.88-6.11h0s0-.39,0-1.78a.44.44,0,0,1,.15-.4,2.16,2.16,0,0,1,1.36-.27l.17-1.49A3.56,3.56,0,0,0,21,7.39ZM8.37,23.14a1.77,1.77,0,1,1,0-3.52,1.77,1.77,0,1,1,0,3.52Zm7.69-3.52a1.77,1.77,0,1,1-1.92,1.76A1.85,1.85,0,0,1,16.06,19.62ZM10.55,2.86V8.35L6.84,3.8a6.59,6.59,0,0,1,3.4-.94ZM6,4.39l4.05,5L4,8.32A5.73,5.73,0,0,1,6,4.39ZM4,10.45c0-.1,0-.2,0-.39V9.33l6,1L5.14,13.71A5.07,5.07,0,0,1,4,10.45Zm7.92,7-1.16-.68h2.32ZM16,15.3H8.37a4.07,4.07,0,0,1-2.5-.88l5.35-3.69.08.08h9A4.6,4.6,0,0,1,16,15.3Z"/></svg>