<?xml version="1.0" encoding="utf-8"?>
<!-- Generator: Adobe Illustrator 21.1.0, SVG Export Plug-In . SVG Version: 6.00 Build 0)  -->
<svg version="1.1" id="Layer_1" xmlns="http://www.w3.org/2000/svg" xmlns:xlink="http://www.w3.org/1999/xlink" x="0px" y="0px"
	 viewBox="0 0 26 26" style="enable-background:new 0 0 26 26;" xml:space="preserve">
<style type="text/css">
	.st0{fill:#434343;}
	.st1{fill:none;stroke:#000000;stroke-width:1.5;stroke-miterlimit:10;}
	.st2{fill:none;stroke:#000000;stroke-miterlimit:10;}
	.st3{fill:none;stroke:#000000;stroke-width:1.5;stroke-linejoin:bevel;stroke-miterlimit:10;}
	.st4{fill:none;stroke:#000000;stroke-linejoin:bevel;stroke-miterlimit:10;}
	.st5{fill:#231F20;}
</style>
<path class="st0" d="M22.6,10.6c-0.9-1-2.2-1.5-3.5-1.5h-0.4c0,0,0,0,0,0c-0.5,0-1,0.1-1.5,0.3l0-5.4c0-1.6-1.3-2.9-2.9-2.9l-8.9,0
	c0,0,0,0,0,0c-0.8,0-1.5,0.3-2,0.8C2.8,2.5,2.5,3.2,2.5,4l0,18.3c0,1.6,1.3,2.9,2.9,2.9l8.9,0c0.7,0,1.4-0.3,1.9-0.7
	c0.7,0.4,1.6,0.7,2.5,0.7H19c0,0,0,0,0,0c2.8,0,5-2.2,5-5l0-6C24,12.9,23.5,11.6,22.6,10.6z M22.5,14.2l0,0.6h-3.3v-4.1
	c0.8,0.1,1.6,0.4,2.3,1C22.2,12.4,22.5,13.3,22.5,14.2z M18.4,14.8h-3.3l0-0.6c0-0.9,0.4-1.8,1-2.5c0.6-0.6,1.4-1,2.2-1V14.8z
	 M7.1,2.6l5.4,0v0.5c0,0.6-0.4,1.2-0.8,1.2H7.9c-0.4,0-0.8-0.5-0.8-1.2V2.6z M5.3,23.7c-0.8,0-1.4-0.6-1.4-1.4L4,4
	c0-0.4,0.1-0.7,0.4-1c0.3-0.3,0.6-0.4,1-0.4c0,0,0,0,0,0l0.8,0v0.5c0,1.2,0.8,2.2,1.8,2.2h3.7c1,0,1.8-1,1.8-2.2V2.6l0.8,0
	c0.8,0,1.4,0.6,1.4,1.4l0,6.2h0c-0.2,0.1-0.4,0.3-0.5,0.4c-1,0.9-1.5,2.2-1.5,3.5l0,6c0,1.3,0.5,2.4,1.3,3.3
	c-0.2,0.1-0.4,0.2-0.7,0.2L5.3,23.7z M19,23.7C19,23.7,19,23.7,19,23.7h-0.4c-1.9,0-3.5-1.6-3.5-3.5l0-4.4h7.4l0,4.4
	C22.5,22.1,21,23.7,19,23.7z"/>
</svg>
