<?xml version="1.0" encoding="utf-8"?>
<!-- Generator: Adobe Illustrator 21.1.0, SVG Export Plug-In . SVG Version: 6.00 Build 0)  -->
<svg version="1.1" id="Layer_1" xmlns="http://www.w3.org/2000/svg" xmlns:xlink="http://www.w3.org/1999/xlink" x="0px" y="0px"
	 viewBox="0 0 26 26" style="enable-background:new 0 0 26 26;" xml:space="preserve">
<style type="text/css">
	.st0{fill:#434343;}
	.st1{fill:none;stroke:#000000;stroke-width:1.5;stroke-miterlimit:10;}
	.st2{fill:none;stroke:#000000;stroke-miterlimit:10;}
	.st3{fill:none;stroke:#000000;stroke-width:1.5;stroke-linejoin:bevel;stroke-miterlimit:10;}
	.st4{fill:none;stroke:#000000;stroke-linejoin:bevel;stroke-miterlimit:10;}
	.st5{fill:#231F20;}
</style>
<path class="st0" d="M25,4.1H4L3.3,4.9v2.2H1L0.3,7.9v14L1,22.6h8l0.8-0.8v-2.2h4.5v1.5h-3v1.5h7.5v-1.5h-3v-1.5H25l0.8-0.8v-14
	L25,4.1z M8.3,21.1H1.8V8.6h6.5V21.1z M24.3,18.1H9.8V7.9L9,7.1H4.8V5.6h19.5V18.1z M17.2,15.1l4.1-4.1l0.7,0.7l-4.1,4.1L17.2,15.1z
	 M14.7,15.2L14,14.5l6.2-6.2L20.9,9L14.7,15.2z M5,19.9c1.1,0,2-0.9,2-2c0-1.1-0.9-2-2-2s-2,0.9-2,2C3,19,3.9,19.9,5,19.9z M5,16.9
	c0.6,0,1,0.4,1,1c0,0.6-0.4,1-1,1c-0.6,0-1-0.4-1-1C4,17.3,4.5,16.9,5,16.9z M4.5,11c0-0.3,0.2-0.5,0.5-0.5c0.3,0,0.5,0.2,0.5,0.5
	c0,0.3-0.2,0.5-0.5,0.5C4.7,11.5,4.5,11.3,4.5,11z M4.5,14c0-0.3,0.2-0.5,0.5-0.5c0.3,0,0.5,0.2,0.5,0.5c0,0.3-0.2,0.5-0.5,0.5
	C4.7,14.5,4.5,14.3,4.5,14z"/>
</svg>
