<?xml version="1.0" encoding="utf-8"?>
<!-- Generator: Adobe Illustrator 21.1.0, SVG Export Plug-In . SVG Version: 6.00 Build 0)  -->
<svg version="1.1" id="Layer_1" xmlns="http://www.w3.org/2000/svg" xmlns:xlink="http://www.w3.org/1999/xlink" x="0px" y="0px"
	 viewBox="0 0 26 26" style="enable-background:new 0 0 26 26;" xml:space="preserve">
<style type="text/css">
	.st0{fill:#434343;}
	.st1{fill:none;stroke:#000000;stroke-width:1.5;stroke-miterlimit:10;}
	.st2{fill:none;stroke:#000000;stroke-miterlimit:10;}
	.st3{fill:none;stroke:#000000;stroke-width:1.5;stroke-linejoin:bevel;stroke-miterlimit:10;}
	.st4{fill:none;stroke:#000000;stroke-linejoin:bevel;stroke-miterlimit:10;}
	.st5{fill:#231F20;}
</style>
<path class="st0" d="M25.7,17.9l-1.7-8.1c-0.1-0.5-0.3-1.1-0.4-1.3c-0.8-2.5-3.5-3.9-6-3.1c-1.4,0.4-2.3,1.6-2.8,2.7h-3.6
	C10.7,7,9.7,5.8,8.3,5.4C5.8,4.6,3.1,6,2.3,8.5C2.2,8.7,2,9.3,1.9,9.8l-1.6,8.1c-0.3,0.9-0.2,1.9,0.2,2.8c0.4,0.9,1.2,1.5,2.1,1.8
	c0.3,0.1,0.7,0.2,1.1,0.2c1,0,2.3-0.5,3.4-2.4c0.3-0.6,1-1.8,1.4-2.4h9c0.4,0.6,1,1.8,1.3,2.4c1,2,2.7,2.8,4.5,2.2
	c0.9-0.3,1.7-0.9,2.1-1.8C25.9,19.8,26,18.8,25.7,17.9z M24.1,19.9c-0.3,0.5-0.7,0.9-1.2,1.1c-1.4,0.4-2.2-0.6-2.7-1.5
	c-0.4-0.8-1.6-2.8-1.6-2.8l-0.6-0.4H8.1l-0.6,0.4c0,0-1.2,2-1.6,2.8c-1.1,2-2.3,1.6-2.7,1.5c-0.5-0.2-1-0.6-1.2-1.1
	c-0.3-0.5-0.3-1.1-0.1-1.7l1.7-8.1c0.1-0.4,0.3-1,0.3-1.2c0.5-1.4,1.7-2.3,3.1-2.3c0.3,0,0.7,0.1,1,0.2C9,7.2,9.7,8.3,10,9.1
	l0.7,0.5h4.6L16,9.1c0.3-0.8,1-1.9,2.1-2.3c1.7-0.6,3.6,0.4,4.2,2.1c0.1,0.2,0.2,0.7,0.3,1.2l1.7,8.2l0,0.1
	C24.4,18.9,24.4,19.4,24.1,19.9z M19.4,9.3c0,0.3-0.2,0.5-0.5,0.5c-0.3,0-0.5-0.2-0.5-0.5c0-0.3,0.2-0.5,0.5-0.5
	C19.2,8.8,19.4,9,19.4,9.3z M19.4,13c0,0.3-0.2,0.5-0.5,0.5s-0.5-0.2-0.5-0.5s0.2-0.5,0.5-0.5S19.4,12.7,19.4,13z M17.6,11.1
	c0,0.3-0.2,0.5-0.5,0.5c-0.3,0-0.5-0.2-0.5-0.5c0-0.3,0.2-0.5,0.5-0.5C17.3,10.6,17.6,10.9,17.6,11.1z M21.2,11.1
	c0,0.3-0.2,0.5-0.5,0.5c-0.3,0-0.5-0.2-0.5-0.5c0-0.3,0.2-0.5,0.5-0.5C21,10.6,21.2,10.9,21.2,11.1z M11.1,12.5h3.7v1h-3.7V12.5z
	 M7.5,10.6h1.8v1H7.5v1.8h-1v-1.8H4.7v-1h1.8V8.9h1V10.6z"/>
</svg>
