<svg id="Слой_1" data-name="Слой 1" xmlns="http://www.w3.org/2000/svg" viewBox="0 0 26 26"><defs><style>.cls-1{fill:#454545;}</style></defs><title>icons-kitchenstuff</title><path class="cls-1" d="M25.09,11.59H22.48V9.8l-.12-.39c-1.17-1.88-3.58-3.25-6.48-3.8a3,3,0,0,0-2.88-3,3,3,0,0,0-2.88,3c-2.9.55-5.31,1.92-6.48,3.8l-.12.39v1.79H.91v1.5H3.52V19.6a3.77,3.77,0,0,0,3.77,3.77H18.71a3.77,3.77,0,0,0,3.77-3.77V13.09h2.61ZM13,4.13A1.46,1.46,0,0,1,14.37,5.4c-.45,0-.91-.06-1.37-.06s-.92,0-1.37.06A1.46,1.46,0,0,1,13,4.13Zm0,2.71c3.38,0,6.46,1.21,7.85,3H5.15C6.54,8.05,9.62,6.84,13,6.84Zm5.71,15H7.29A2.27,2.27,0,0,1,5,19.6V10.88H21V19.6A2.27,2.27,0,0,1,18.71,21.87Z"/><rect class="cls-1" x="14.17" y="17.41" width="5.65" height="0.97" transform="translate(-7.67 17.26) rotate(-45)"/><rect class="cls-1" x="10.64" y="15.75" width="8.57" height="0.97" transform="translate(-7.11 15.31) rotate(-45)"/></svg>