<?xml version="1.0" encoding="utf-8"?>
<!-- Generator: Adobe Illustrator 21.1.0, SVG Export Plug-In . SVG Version: 6.00 Build 0)  -->
<svg version="1.1" id="Layer_1" xmlns="http://www.w3.org/2000/svg" xmlns:xlink="http://www.w3.org/1999/xlink" x="0px" y="0px"
	 viewBox="0 0 26 26" style="enable-background:new 0 0 26 26;" xml:space="preserve">
<style type="text/css">
	.st0{fill:#434343;}
	.st1{fill:none;stroke:#000000;stroke-width:1.5;stroke-miterlimit:10;}
	.st2{fill:none;stroke:#000000;stroke-miterlimit:10;}
	.st3{fill:none;stroke:#000000;stroke-width:1.5;stroke-linejoin:bevel;stroke-miterlimit:10;}
	.st4{fill:none;stroke:#000000;stroke-linejoin:bevel;stroke-miterlimit:10;}
	.st5{fill:#231F20;}
</style>
<path class="st0" d="M13,1.3C6.5,1.3,1.3,6.5,1.3,13S6.5,24.8,13,24.8S24.8,19.5,24.8,13S19.5,1.3,13,1.3z M13,23.3
	C7.3,23.3,2.8,18.7,2.8,13S7.3,2.8,13,2.8S23.3,7.4,23.3,13S18.7,23.3,13,23.3z M19.7,14.4v-1.2h1.6l0.5-0.5c0-4.5-3.9-8.2-8.7-8.2
	s-8.7,3.7-8.7,8.2l0.5,0.5h1.6v1.2H4.8l-0.5,0.6c0.5,3.2,3.6,6,7.5,6.9l0.6-0.5v-2.3c0,0,0,0,0,0h1.2c0,0,0,0,0,0v2.3l0.6,0.5
	c3.9-0.9,7-3.7,7.5-6.9l-0.5-0.6H19.7z M13.1,5.5c4.1,0,7.4,3,7.7,6.7h-1.5c-1-1-3.3-2.5-6.2-2.5c-2.9,0-5.2,1.6-6.2,2.5H5.4
	C5.6,8.4,9,5.5,13.1,5.5z M11.4,20.7c-3-0.8-5.3-2.9-6-5.3h1.3c2.5,0,4.8,1.8,4.8,3.7V20.7z M13.8,18h-1.5c-0.6-1.8-2.5-3.3-4.8-3.6
	V13c0.9-1,3.1-2.4,5.6-2.4c2.5,0,4.7,1.4,5.6,2.4l0,0v1.4C16.4,14.6,14.4,16.2,13.8,18z M14.6,20.7v-1.6c0-1.9,2.3-3.7,4.8-3.7h1.3
	C20,17.8,17.6,19.8,14.6,20.7z"/>
</svg>
