<svg id="Слой_1" data-name="Слой 1" xmlns="http://www.w3.org/2000/svg" viewBox="0 0 56 56"><defs><style>.cls-1{fill:#434343;}</style></defs><title>new</title><path class="cls-1" d="M49.47,24.72,44.53,23.4l-1.24-2.94L45.89,16a2.19,2.19,0,0,0-.25-2.48c-.1-.13-.72-.85-1.26-1.39s-1.32-1.22-1.4-1.28a2.24,2.24,0,0,0-2.46-.25l-4.38,2.57-3-1.31-1.34-5a2.27,2.27,0,0,0-2.07-1.71H26.26a2.27,2.27,0,0,0-2.07,1.71l-1.3,5-3,1.24-4.3-2.5a2.3,2.3,0,0,0-2.5.25c-.16.15-.84.72-1.34,1.24s-1.28,1.39-1.3,1.43A2.2,2.2,0,0,0,10.16,16l2.5,4.36-1.2,3L6.6,24.64A2.22,2.22,0,0,0,5,26.7v3.64a2.2,2.2,0,0,0,1.55,2l4.9,1.26,1.16,3.08L10.1,40.92a2.19,2.19,0,0,0,.22,2.46s.69.81,1.31,1.43S13,46,13,46.05a2.23,2.23,0,0,0,2.46.25l4.4-2.51,3,1.22,1.3,4.92a2.2,2.2,0,0,0,2.07,1.64h3.57A2.22,2.22,0,0,0,31.84,50l1.34-4.89,3-1.22,4.21,2.54a2.23,2.23,0,0,0,2.46-.21s.83-.68,1.43-1.3,1.12-1.2,1.28-1.41A2.18,2.18,0,0,0,45.79,41l-2.46-4.36,1.2-3,4.9-1.33A2.18,2.18,0,0,0,51,30.26V26.68A2.18,2.18,0,0,0,49.47,24.72Zm-7.4,7.79-1.28,3.06a2.54,2.54,0,0,0,0,2.25L43.14,42l-.68.88c-.31.31-.68.64-.93.85l-4.13-2.4A2.52,2.52,0,0,0,36.2,41a2.29,2.29,0,0,0-1,.21l-3.1,1.36a2.52,2.52,0,0,0-1.57,1.66l-1.28,4.65H26.67l-1.24-4.69A2.5,2.5,0,0,0,24,42.55l-3.08-1.28a2.63,2.63,0,0,0-2.26,0l-4.13,2.36-1-.79-.87-1,2.4-4.13a2.49,2.49,0,0,0,0-2.07l-1.14-3.18A2.52,2.52,0,0,0,12.29,31L7.72,29.74V27.16l4.55-1.24a2.47,2.47,0,0,0,1.63-1.47l1.28-3.06a2.54,2.54,0,0,0,0-2.25L12.8,15c.23-.25.56-.62.89-.93s.66-.65.91-.85l4.14,2.4a2.38,2.38,0,0,0,1.17.28,2.29,2.29,0,0,0,1-.2l2.95-1.32a2.61,2.61,0,0,0,1.57-1.7L26.71,7.9h2.48l1.28,4.89a2.52,2.52,0,0,0,1.47,1.62L35,15.69a2.08,2.08,0,0,0,2.25,0l4.14-2.36c.24.23.62.56.91.85s.64.68.84.93l-2.39,4.13a2.46,2.46,0,0,0-.11,2.07l1.28,3.06a2.58,2.58,0,0,0,1.64,1.55l4.56,1.22v2.58L43.54,31A2.41,2.41,0,0,0,42.07,32.51Zm-20-10a8.27,8.27,0,1,0,11.85,0,8.38,8.38,0,0,0-11.83,0Zm12.13,5.91a6.2,6.2,0,1,1-6.14-6.26,6.27,6.27,0,0,1,4.31,1.79A6.19,6.19,0,0,1,34.19,28.38Z"/></svg>