<?xml version="1.0" encoding="utf-8"?>
<!-- Generator: Adobe Illustrator 21.1.0, SVG Export Plug-In . SVG Version: 6.00 Build 0)  -->
<svg version="1.1" id="Layer_1" xmlns="http://www.w3.org/2000/svg" xmlns:xlink="http://www.w3.org/1999/xlink" x="0px" y="0px"
	 viewBox="0 0 26 26" style="enable-background:new 0 0 26 26;" xml:space="preserve">
<style type="text/css">
	.st0{fill:#434343;}
	.st1{fill:none;stroke:#000000;stroke-width:1.5;stroke-miterlimit:10;}
	.st2{fill:none;stroke:#000000;stroke-miterlimit:10;}
	.st3{fill:none;stroke:#000000;stroke-width:1.5;stroke-linejoin:bevel;stroke-miterlimit:10;}
	.st4{fill:none;stroke:#000000;stroke-linejoin:bevel;stroke-miterlimit:10;}
	.st5{fill:#231F20;}
</style>
<path class="st0" d="M22,0.2H4L3.2,1v24L4,25.8h18l0.8-0.8V1L22,0.2z M21.3,24.3H4.8V7h16.5V24.3z M21.3,6H4.8V1.7h16.5V6z M13,21
	c2.8,0,5-2.2,5-5s-2.2-5-5-5s-5,2.2-5,5S10.3,21,13,21z M13,12c2.2,0,4,1.8,4,4s-1.8,4-4,4s-4-1.8-4-4S10.8,12,13,12z M13,14.7v-1
	c1.6,0,2.9,1.3,2.9,2.9h-1C14.9,15.5,14,14.7,13,14.7z M17.5,4.1c0-0.3,0.2-0.5,0.5-0.5s0.5,0.2,0.5,0.5c0,0.3-0.2,0.5-0.5,0.5
	S17.5,4.4,17.5,4.1z"/>
</svg>
