<?xml version="1.0" encoding="utf-8"?>
<!-- Generator: Adobe Illustrator 21.1.0, SVG Export Plug-In . SVG Version: 6.00 Build 0)  -->
<svg version="1.1" id="Layer_1" xmlns="http://www.w3.org/2000/svg" xmlns:xlink="http://www.w3.org/1999/xlink" x="0px" y="0px"
	 viewBox="0 0 26 26" style="enable-background:new 0 0 26 26;" xml:space="preserve">
<style type="text/css">
	.st0{fill:#434343;}
	.st1{fill:none;stroke:#000000;stroke-width:1.5;stroke-miterlimit:10;}
	.st2{fill:none;stroke:#000000;stroke-miterlimit:10;}
	.st3{fill:none;stroke:#000000;stroke-width:1.5;stroke-linejoin:bevel;stroke-miterlimit:10;}
	.st4{fill:none;stroke:#000000;stroke-linejoin:bevel;stroke-miterlimit:10;}
	.st5{fill:#231F20;}
</style>
<path class="st0" d="M23.5,3c-1.4-1.3-3.2-1.9-5-1.8c-3.6,0.3-16.6,2-17.1,2.1L0.6,4.1v7.6l0.6,0.7c0,0,1.6,0.2,3.9,0.6
	c2.5,0.4,5.4,0.7,8,1c0.3,0.1,0.5,0.3,0.5,0.5c0.7,1.3-0.5,4.6-1.4,6.4c-0.8,1.6-0.2,3.1,1.7,3.9c0.6,0.2,1.1,0.4,1.7,0.4
	c0.4,0,0.8-0.1,1.2-0.2c1.4-0.6,2-2.3,2.7-4.1c0.3-0.7,0.5-1.4,0.8-2.1c0.8-1.6,1.7-3.3,2.5-4.6c0.5-0.8,0.8-1.5,1.2-2
	c0.9-1.3,1.7-2.7,1.7-4.3C25.6,6.1,24.8,4.3,23.5,3z M2.1,11V4.7c0.7-0.1,2-0.3,3.5-0.5v7.2c-0.1,0-0.1,0-0.2,0
	C4,11.3,2.8,11.1,2.1,11z M18.9,18.1c-0.3,0.7-0.6,1.5-0.9,2.2c-0.5,1.5-1.1,2.9-1.9,3.2c-0.4,0.2-0.9,0.1-1.6-0.1
	c-1.3-0.6-1.2-1.4-0.9-1.9c0.3-0.5,2.4-4.8,1.6-7.3c1.4,0.1,2.5,0.2,3.3,0.2c0,0,0.1,0,0.1,0c0.9,0,1.7-0.2,2.5-0.5
	C20.4,15.2,19.6,16.6,18.9,18.1z M22.6,11.3c-1.1,1-2.5,1.6-4,1.6c0,0-0.1,0-0.1,0c-0.9,0-5.6-0.5-5.6-0.5C11.1,12.2,9,12,6.6,11.6
	V4.1c4.2-0.5,9.8-1.2,11.9-1.4c1.4-0.1,2.8,0.4,3.9,1.4c1.1,1,1.7,2.3,1.7,3.7C24.1,9.1,23.6,10.4,22.6,11.3z M20.7,5.3
	c0.7,0.7,1,1.6,1,2.9h-1c0-1-0.2-1.7-0.7-2.1c-0.6-0.6-1.7-0.9-3.3-0.8l-0.1-1C18.5,4.1,19.8,4.5,20.7,5.3z"/>
</svg>
