<?xml version="1.0" encoding="utf-8"?>
<!-- Generator: Adobe Illustrator 21.1.0, SVG Export Plug-In . SVG Version: 6.00 Build 0)  -->
<svg version="1.1" id="Layer_1" xmlns="http://www.w3.org/2000/svg" xmlns:xlink="http://www.w3.org/1999/xlink" x="0px" y="0px"
	 viewBox="0 0 26 26" style="enable-background:new 0 0 26 26;" xml:space="preserve">
<style type="text/css">
	.st0{fill:#434343;}
	.st1{fill:none;stroke:#000000;stroke-width:1.5;stroke-miterlimit:10;}
	.st2{fill:none;stroke:#000000;stroke-miterlimit:10;}
	.st3{fill:none;stroke:#000000;stroke-width:1.5;stroke-linejoin:bevel;stroke-miterlimit:10;}
	.st4{fill:none;stroke:#000000;stroke-linejoin:bevel;stroke-miterlimit:10;}
	.st5{fill:#231F20;}
</style>
<path class="st0" d="M13,12.5c-1.9,0-3.5,1.6-3.5,3.5s1.6,3.5,3.5,3.5s3.5-1.6,3.5-3.5S14.9,12.5,13,12.5z M13,18.5
	c-1.4,0-2.5-1.1-2.5-2.5s1.1-2.5,2.5-2.5s2.5,1.1,2.5,2.5S14.4,18.5,13,18.5z M25.8,5L25,4.3l-14.3,0V4L10,3.3H5L4.2,4v0.3L1,4.2
	L0.2,5l0.1,17L1,22.8l24,0l0.8-0.8L25.8,5z M24.3,5.8l0,4.3H1.8l0-4.3L24.3,5.8z M1.8,21.3l0-10.2h22.5l0,10.3L1.8,21.3z M19,8
	c0-0.6,0.4-1,1-1s1,0.4,1,1s-0.4,1-1,1S19,8.6,19,8z"/>
</svg>
