<?xml version="1.0" encoding="utf-8"?>
<!-- Generator: Adobe Illustrator 25.3.1, SVG Export Plug-In . SVG Version: 6.00 Build 0)  -->
<svg version="1.1" id="Layer_1" xmlns="http://www.w3.org/2000/svg" xmlns:xlink="http://www.w3.org/1999/xlink" x="0px" y="0px"
	 viewBox="0 0 26 26" style="enable-background:new 0 0 26 26;" xml:space="preserve">
<style type="text/css">
	.st0{fill:#434343;}
</style>
<g>
	<g>
		<path class="st0" d="M13,22.6c-0.1,0-0.2,0-0.3-0.1C12.3,22.3,2.3,18,2.3,10.1c0-1.3,0.4-2.6,1.2-3.7c0.8-1.1,2-1.8,3.2-2.2
			C8.1,3.9,9.5,4,10.7,4.5c0.9,0.4,1.7,1,2.3,1.7c0.6-0.7,1.4-1.3,2.3-1.7c1.2-0.5,2.6-0.6,3.9-0.3c1.3,0.3,2.4,1.1,3.2,2.2
			c0.8,1.1,1.2,2.4,1.2,3.7c0,7.9-10,12.2-10.4,12.4C13.2,22.6,13.1,22.6,13,22.6z M8.3,5.4c-0.4,0-0.8,0.1-1.2,0.2
			c-1,0.3-1.9,0.9-2.5,1.7s-1,1.8-1,2.8c0,6.3,7.7,10.3,9.3,11c1.6-0.7,9.3-4.7,9.3-11c0,0,0,0,0,0c0-1-0.3-2-1-2.8
			c-0.6-0.8-1.5-1.4-2.5-1.7c-1-0.3-2.1-0.2-3,0.2c-0.9,0.4-1.7,1.1-2.2,2c-0.2,0.4-1,0.4-1.2,0c-0.5-0.9-1.3-1.6-2.2-2
			C9.6,5.5,9,5.4,8.3,5.4z"/>
	</g>
	<g>
		<path class="st0" d="M5.2,10.9C5.2,10.9,5.2,10.9,5.2,10.9c-0.4,0-0.8-0.3-0.8-0.8c0-1.1,0.4-2,1.2-2.8c0.7-0.7,1.7-1.2,2.8-1.2
			c0.4,0,0.8,0.3,0.8,0.8S8.8,7.7,8.4,7.7c-0.7,0-1.3,0.3-1.7,0.7c-0.5,0.5-0.7,1.1-0.7,1.7C5.9,10.5,5.6,10.9,5.2,10.9z"/>
	</g>
	<g>
		<rect x="8.7" y="9.7" class="st0" width="1.5" height="7.2"/>
	</g>
	<g>
		<path class="st0" d="M14.5,14.1h-2.9l-0.8-0.7v-2.8l0.8-0.8h2.9l0.8,0.8v2.8L14.5,14.1z M12.4,12.6h1.4v-1.3h-1.4V12.6z"/>
	</g>
	<g>
		<path class="st0" d="M14.5,16.9h-2.9l-0.8-0.8v-2.9l0.8-0.8h2.9l0.8,0.8v2.9L14.5,16.9z M12.4,15.4h1.4v-1.3h-1.4V15.4z"/>
	</g>
	<g>
		<rect x="15.8" y="12.6" class="st0" width="4.4" height="1.5"/>
	</g>
	<g>
		<rect x="17.3" y="11.1" class="st0" width="1.5" height="4.4"/>
	</g>
</g>
</svg>
